/* XPM */
static char *_e6c944441294f49a2d124e3cc8126f4rv1N5ja4JRz3jdFl[] = {
/* columns rows colors chars-per-pixel */
"16 16 52 1 ",
"  c #010000",
". c #080202",
"X c #1B0908",
"o c #1E0C0A",
"O c #25100E",
"+ c #291311",
"@ c #2D1513",
"# c #311715",
"$ c #351A17",
"% c #351918",
"& c #3F1F1C",
"* c #3F201C",
"= c #37222B",
"- c #37222C",
"; c #38232C",
": c #39242D",
"> c #3C252F",
", c #3C2630",
"< c #3D2630",
"1 c #44221F",
"2 c #472522",
"3 c #482622",
"4 c #492622",
"5 c #492724",
"6 c #4E2825",
"7 c #512A27",
"8 c #522B27",
"9 c #582D2A",
"0 c #5B302D",
"q c #5E322E",
"w c #62332F",
"e c #62342F",
"r c #633430",
"t c #653631",
"y c #673833",
"u c #6A3934",
"i c #6B3934",
"p c #6B3935",
"a c #6D3A36",
"s c #6D3B36",
"d c #6E3B36",
"f c #703C37",
"g c #703C38",
"h c #713D38",
"j c #A36246",
"k c #A46347",
"l c #A66447",
"z c #A86548",
"x c #AE694B",
"c c #B16B4D",
"v c #B46C4E",
"b c #D7C39C",
/* pixels */
"8889gdgv,,gd3O. ",
"888ydgdv;,df8#+o",
"twuddddc,,ggr1%$",
"dddddddx,,dgddqq",
"ududuudx:,dfffgg",
"uuduiidx::dfdggg",
"=;;;;;;c,:><><<<",
";====;;;:::>:<:<",
"kkkjllzb:cxxxcvv",
"trrrttul=:dddddg",
"rrrrtttk:=duddgg",
"8qqrrrtk=:duddgd",
"589wwwrj;;iidugd",
"2360wrrj-;idddd8",
"&226rqrj=;ppdpd@",
"3*2389rj-;pdpdgX"
};
