/* XPM */
static char *result[] = {
/* columns rows colors chars-per-pixel */
"40 40 146 2 ",
"   c #000100",
".  c #040A01",
"X  c #0C0C0C",
"o  c #071002",
"O  c #0C1B05",
"+  c #161616",
"@  c #1B1B19",
"#  c #172D08",
"$  c #1B370B",
"%  c #1C3A0B",
"&  c #202020",
"*  c #2D2D2D",
"=  c #33332F",
"-  c #393934",
";  c #393939",
":  c #623201",
">  c #22410D",
",  c #274A10",
"<  c #2B5213",
"1  c #2D5913",
"2  c #305B13",
"3  c #325F18",
"4  c #2E6010",
"5  c #326314",
"6  c #366D13",
"7  c #396D17",
"8  c #356519",
"9  c #39661A",
"0  c #356819",
"q  c #3B6E1C",
"w  c #377014",
"e  c #3B7217",
"r  c #3D731B",
"t  c #3F781C",
"y  c #3C6D20",
"u  c #685407",
"i  c #6E5909",
"p  c #71471D",
"a  c #41771D",
"s  c #427A1E",
"d  c #7A7A07",
"f  c #47473B",
"g  c #427621",
"h  c #447B21",
"j  c #497E24",
"k  c #4B7E2B",
"l  c #424242",
"z  c #4E4E4E",
"x  c #4F514E",
"c  c #565656",
"v  c #5D5D52",
"b  c #5C5C5C",
"n  c #767642",
"m  c #7C7B43",
"M  c #636363",
"N  c #6F706D",
"B  c #777876",
"V  c #804101",
"C  c #824C13",
"Z  c #45811E",
"A  c #48861E",
"S  c #4A891F",
"D  c #478122",
"F  c #4B8525",
"G  c #4C8924",
"H  c #4D8529",
"J  c #4E8928",
"K  c #518524",
"L  c #508D26",
"P  c #518C2A",
"I  c #4F9026",
"U  c #519126",
"Y  c #54932A",
"T  c #58962D",
"R  c #57992E",
"E  c #5A9D2D",
"W  c #548B30",
"Q  c #59863D",
"!  c #599532",
"~  c #5B9B31",
"^  c #608649",
"/  c #828200",
"(  c #8C8C01",
")  c #939302",
"_  c #9D9D00",
"`  c #808016",
"'  c #909015",
"]  c #A3A300",
"[  c #A8A800",
"{  c #B4B401",
"}  c #BCBC00",
"|  c #BDBC08",
" . c #9E9E2F",
".. c #939333",
"X. c #B9B922",
"o. c #BBBB2A",
"O. c #AAAA36",
"+. c #B0B03F",
"@. c #C3C201",
"#. c #C9C900",
"$. c #DDDD02",
"%. c #D9D908",
"&. c #CECE13",
"*. c #CCCC1D",
"=. c #858543",
"-. c #8C8C43",
";. c #939349",
":. c #9F9F4F",
">. c #808055",
",. c #9D9D55",
"<. c #A5A544",
"1. c #A5A552",
"2. c #BDBD5F",
"3. c #878761",
"4. c #818174",
"5. c #80807A",
"6. c #808E78",
"7. c #829279",
"8. c #9B9B75",
"9. c #C5C562",
"0. c #C8C864",
"q. c #D0D068",
"w. c #E0E075",
"e. c #E0E078",
"r. c gray52",
"t. c #8D8F8B",
"y. c #939C8D",
"u. c #9C9C9B",
"i. c #97A390",
"p. c #99A691",
"a. c #B1B198",
"s. c #A4A4A4",
"d. c #A7A9A6",
"f. c #AFAFAE",
"g. c #B7B6B5",
"h. c #ABC69B",
"j. c #EBEB8E",
"k. c #ECEC93",
"l. c #FBFBB4",
"z. c #D0CFCE",
"x. c #D3DFCB",
"c. c #D5D5D4",
"v. c #D8D9D8",
"b. c #FEFEC5",
"n. c #FDFDE0",
"m. c #FFFFFD",
/* pixels */
"g a J G F J K h J F G L P J D F P ~ G J J G F J D j F G Y K r q J J G J F J r a ",
"r q J P s A K D G E E E E L Z G G G G J J s A F h a s J L G r q R I G F a s a r ",
"j q J t a s F G E E E E E G G G G K s G G G G G J U J G J F g t G G G G F F r F ",
"h q H D J a G Y E E E E E J J G G s a J G s G F q P G G G J g h a a G G K G G G ",
"G K F j A P J G E E E E R G G G G s g D J F G F F s G J a a a D g h j q H s G G ",
"G G F < j 5 5 G I R G U G E R J G s s G G J G G G S F a s h J F h D r q h a G J ",
"G a s g k K F G G G G G G G G a a D J F G G G G F a G G T U G G t G F j J G t q ",
"G s g a G F s J F G G G G G Y G G D u u i F J F s a G G J U G J J G G G G G F j ",
"G G Z t G F q F F G G G G s E U F 6.C V V y.G G G w J F P D G J G G L G G J G J ",
"t D J F G J G G G H G G G G A G h.v.p : : f.y.G S F q 5 9 q G G S Y L G e G G U ",
"J F q r G J G H U E E G G E G G P x.z.c.g.p.K G J G 6 J S G G G G E R G F G G R ",
"G F q r G G J g D E E I E Y G G G 6.r.M l t.F G G S I R E E G G S G F G J S F a ",
"G F J J G G Y t t h Z G E r F G F 7.r.M l t.D F L E E E E J a a G G J G G G j q ",
"S S G G G t t t h g R G J y a G D i.r.M l t.F J Y E Y R r     . 9 G G G F s G Y ",
"E E J G G G R E t t P G J s G G G p.r.M l t.G G Y U g ,         # G G G a r G U ",
"U Y G J G G G G H t G J G J G G K i.u.M f t.F J J U %         . 1 h D G G G F J ",
"G G U E I G G S J F G F G G F F G p.s.M l N S I 1 o         . a H g t J F G a j ",
"G G J I E G G G G F G G F J J ^ d.z.d.p.M f N x             G G a h F J G G a g ",
"R A S G E G G G G h G G G G Q a.n.m.v.s.M M l z ;         D G G G J G G G Z g r ",
"U E R G G G J G J G F J F W 8.j.n.m.b.e.<.C d f v =       G G G G J G G S F a q ",
"S E E G G G G J 1 h 1 0 Q 5.*.0.k.l.w.2.<.] ] { } -.+   o G F G G G G G J q q G ",
"Y E E G Y Y G S j H J 6 k t.=.1.9.q.2.+.#.#.{ #.[ n +   D J r a G G G G G r r G ",
"I E U S E E G F G G J G P ^ C -.;.:...} } } K ( ) m +   Z J h a E E D G E G G G ",
"G G G Y E E G J F F G G R 7.' ` C ' E ( C ( { ] [ =.+   D J G ~ R G Z G G G Y E ",
"G G J G E G G F J A F G P 4./ ( ( / d _ _ _ [ [ } -.+ 9 G G E E G J a G J S G I ",
"G F g J G s U a h q j R F @ >./ / ) _ _ _ } } }  .-   a J S E G s s L R a a G S ",
"G h g J G t G G D a F ~ q X 3._ ] ] ] $.} @.@.#.O.*   a G G J G R s E E a a G G ",
"S s F J G J G G a J K s r   & ,.| } @.@.@.$.%.X.-   a J G G G E E S E E U J G G ",
"G F e J G G G G F h a D h q . = B o.&.&.&.&.M l   2 J F G G G E E E E E S G G E ",
"G G G F G s G s J h g q s a 7 O . l b b c c   . > F G h s Z G E E Y E ! G G J G ",
"r G G G G J G E G 9 g 9 G J J G 3 % % $ % % > r r F F h a s F 9 5 k 8 r F J J r ",
"F G G G G F D 5 9 K 4 5 G G F J G F J J J G G E G G F a h s Y j F G G t a h F J ",
"S s J G J G U a F G S F G S F J G F G J G Y E E E G G G G E E ~ G J J G F F Z q ",
"G Z G G F G U E E S J G G G G G D q a a G E E E G G G G G G t a Y G J G J r G D ",
"E U R G F J G E E E E E R A G G A q g h J r D Y G G t t G F g F S G G S J q t H ",
"G J Y S A a G E E E E E E Y J G J F J G F q r G G G 7 q J ~ a E D G G J D G r D ",
"J Z F G q q F G G I L G K J J G G J G G J A F J G G D t G J r E G J q q G G t F ",
"G J s J s F G J J G G G G J G G T G S K Z G J F D F G F G G D J F A q q G G H G ",
"S F D G L E L r r G T R r q D G G G r q F G a h h h r r F t J G F h j G G H F F ",
"h j E R J G G q q F E U a q D L U G r q F F D D G G q q J g J G K a a J t t t t "
};
