/* XPM */
static char *_bf8303834764b72aa40784c9be73538aLZyf3pvsn3kleB4[] = {
/* columns rows colors chars-per-pixel */
"16 16 14 1 ",
"  c None",
". c #170625",
"X c #1C1030",
"o c #2A103B",
"O c #39133E",
"+ c #7F3D13",
"@ c #31164A",
"# c #391A53",
"$ c #4C1346",
"% c #693360",
"& c #80591E",
"* c #A68937",
"= c #966989",
"- c #B8A3B2",
/* pixels */
"        ..      ",
"      ..&*.     ",
"     .&+.&*.    ",
"      .OO.+&.   ",
"      .$$O..    ",
"     .$=$O.o.   ",
"     .$-$Ooo.   ",
"    .$-%$Ooo.   ",
"    .$-$Ooo@.   ",
"   .$=%$Oo@@.   ",
"   .$%$Ooo@@.   ",
"   .$%Ooo@@#.   ",
"   .O$Ooo@#.    ",
"    .Ooo@@#.    ",
"    .oOo@#.     ",
"     .....X     "
};
