/* XPM */
static char *result[] = {
/* columns rows colors chars-per-pixel */
"40 40 154 2 ",
"   c #2D5815",
".  c #335E19",
"X  c #326313",
"o  c #396D17",
"O  c #356519",
"+  c #39661A",
"@  c #3C6E1C",
"#  c #3B7217",
"$  c #3D731B",
"%  c #3F781C",
"&  c #3C6D21",
"*  c #41771D",
"=  c #427A1E",
"-  c #436D29",
";  c #427621",
":  c #447B21",
">  c #497E24",
",  c #48772A",
"<  c #4A7C2B",
"1  c #4E7734",
"2  c #5B7C48",
"3  c #6E7E66",
"4  c #46821F",
"5  c #4A891F",
"6  c #78A31F",
"7  c #478121",
"8  c #4B8525",
"9  c #4C8924",
"0  c #4D8629",
"q  c #4E8928",
"w  c #518524",
"e  c #518C25",
"r  c #518B2B",
"t  c #4F9026",
"y  c #509126",
"u  c #54932A",
"i  c #58962D",
"p  c #57992E",
"a  c #5A9D2D",
"s  c #548633",
"d  c #558A33",
"f  c #5B853F",
"g  c #5B893E",
"h  c #5C9B33",
"j  c #65993F",
"k  c #5B8343",
"l  c #5E8843",
"z  c #5E804A",
"x  c #608846",
"c  c #62854D",
"v  c #638A4C",
"b  c #639941",
"n  c #6A964E",
"m  c #698A54",
"M  c #6A875A",
"N  c #768C5D",
"B  c #6D9256",
"V  c #6F8762",
"C  c #758B66",
"Z  c #79876F",
"A  c #7A8E6D",
"S  c #779464",
"D  c #7C936C",
"F  c #7D8C73",
"G  c #9AB918",
"H  c #BDCE15",
"J  c #EBEE0F",
"K  c #F3F600",
"L  c #E4E813",
"P  c #C0C923",
"I  c #CFD42F",
"U  c #D1D42C",
"Y  c #DBDD2D",
"T  c #D7D93C",
"R  c #E3E622",
"E  c #B8BE52",
"W  c #BABC5D",
"Q  c #80877B",
"!  c #828D7A",
"~  c #839676",
"^  c #999D70",
"/  c #9DA06D",
"(  c #A6A66B",
")  c #ABAC78",
"_  c #BDC048",
"`  c #BFC06B",
"'  c #D3D547",
"]  c #D2D449",
"[  c #C6C955",
"{  c #5D6FBD",
"}  c #5E71BE",
"|  c #0433FF",
" . c #043CFF",
".. c #0C3EFA",
"X. c #143CF7",
"o. c #0344FF",
"O. c #034CFF",
"+. c #1445F4",
"@. c #0353FF",
"#. c #025BFF",
"$. c #1950F3",
"%. c #1458F3",
"&. c #244AE7",
"*. c #0265FF",
"=. c #026CFF",
"-. c #1463F3",
";. c #146BF3",
":. c #0274FF",
">. c #027BFF",
",. c #0E7CF9",
"<. c #6175C2",
"1. c #7F90A4",
"2. c #7A98A7",
"3. c #7199AF",
"4. c #6C81B9",
"5. c #7785BC",
"6. c #6F9CB4",
"7. c #0282FF",
"8. c #018AFF",
"9. c #0194FF",
"0. c #019CFF",
"q. c #099DFE",
"w. c #1DA5EA",
"e. c #01A4FF",
"r. c #08A4FA",
"t. c #00AAFF",
"y. c #20A4EA",
"u. c #5B85C2",
"i. c #4F9DC7",
"p. c #559EC4",
"a. c #41A0D3",
"s. c #858C80",
"d. c #8C8D8A",
"f. c #8A9384",
"g. c #8F968A",
"h. c #91958E",
"j. c #989C8D",
"k. c #818D9A",
"l. c #8C949B",
"z. c #969696",
"x. c #969B93",
"c. c #9A9B93",
"v. c #9B9B9B",
"b. c #A09F9F",
"n. c #9EA084",
"m. c #9FA09E",
"M. c #B5B585",
"N. c #B2B28A",
"B. c #AFAF92",
"V. c #A2A39D",
"C. c #A9A99C",
"Z. c #888DA0",
"A. c #8994A7",
"S. c #A3A3A2",
/* pixels */
"; * q 9 8 q 8 = q q 9 w y q 8 8 q h 9 q 8 q 8 q 4 > 8 q u 9 $ @ q q 9 8 8 w * * ",
"$ @ q q 4 4 w 8 5 a a a a e 4 9 9 9 9 9 q 4 4 q = * = 9 e 9 $ @ i t 9 9 * = * @ ",
"> @ q = = * 8 9 a a a a a 9 9 9 q q = 9 9 8 9 8 q y q 9 9 8 ; * q 9 q 9 q 7 * 8 ",
": @ 0 7 q * 8 u a a a a a q 9 q 9 = = 0 9 = 9 5 @ r q 9 q q ; : = = q 9 9 9 9 9 ",
"9 w 8 : 5 r w 9 a a a a p 9 8 q 9 % ; > q q 8 9 q * 9 q * = * : ; : : o q % 9 9 ",
"9 8 8   > X X q t p e 9 9 p a 8 5 * : q 9 8 q q 9 5 8 % = : w 9 : 7 $ @ : % q 0 ",
"9 = * ; < 8 8 9 q 9 9 9 5 q q = = 7 e w e r 8 q 7 = 9 9 i y q 9 * 9 q : q q % @ ",
"9 = : = w 8 = 9 9 9 8 9 9 9 u r x V P ^ L ! A c < = 9 q q y 9 9 q 9 9 9 9 9 8 > ",
"q 9 4 % 9 8 $ 8 8 9 0 9 w 7 n ~ g.z.S.Y V.S.b.g.! 2 s w r 7 q q 9 9 w 9 9 q 9 9 ",
"* 4 9 8 9 9 0 9 9 8 9 9 s V h.S.A.<.{ { } } <.5.S.x.3 - + o q 9 5 u y 9 # 9 9 u ",
"q 8 @ $ 9 q 9 0 t a a g ! c.T Z.&.| | | | | | +.4.[ U Q g 9 9 9 9 a p 9 9 9 9 u ",
"8 8 @ $ 9 9 q ; : a h A V.R n.+.| | o.o.o. . . .+.k.N.L ~ j 9 9 5 9 9 8 9 9 8 % ",
"9 9 9 q q 9 u % : = k x.S.x...| o.#.=.:.=.*.@. . ...k.C.v.S q q 9 9 9 9 9 w : @ ",
"9 5 9 9 9 % % % : , F b.z.X.| O.*.8.0.0.9.9.7.#.o.o. .z.S.s.l 9 8 9 9 9 9 = 9 u ",
"a a q 9 9 9 p a % 1 g.S.Z.+.o.*.8.0.9.8.9.9.0.>.O.o.#.z.S.v.M q 9 9 9 9 * # q y ",
"t u 9 9 9 8 9 9 0 c z.v.+. .@.7.e.8.:.*.*.*.8.9.*.o.@.A.S.S.Q s $ * 8 9 9 q 8 r ",
"9 9 y a 9 9 9 5 e N ) z.+.O.:.0.9.*.*.:.=.=.*.8.>.O.O.:.z.S.s.g 7 ; : q q 8 * : ",
"5 8 q y a 9 9 9 r / ' v.$.#.9.0.>.*.>.7.>.8.:.:.8.@.o.=.z.B.E v = : 7 q 9 9 = ; ",
"a 5 5 8 a y 9 9 y U [ ) %.=.9.0.=.:.>.:.:.:.7.=.8.#.O.:.z.M.U m 8 q q 9 5 = = @ ",
"y p p 5 q 9 9 q d ( ' c.%.:.0.0.*.:.:.>.>.:.>.=.8.@.O.>.j.R ` G 9 9 9 9 9 9 ; $ ",
"9 a a 9 9 9 9 q . / ] z.-.>.0.9.*.>.:.>.>.>.>.:.8.@.@.7.z.M.U m 9 9 9 9 8 @ $ q ",
"u a a 9 u p 9 5 < s.S.v.-.7.e.9.*.:.>.=.:.>.*.>.>.O.@.8.z.M.I 2 9 9 t 9 e $ $ 9 ",
"y a y 5 a a 9 8 s ~ S.v.;.>.e.0.*.*.8.:.=.*.>.8.=.O.=.e.z.S.z.1 a a 7 9 a 9 9 9 ",
"9 9 q u a a 9 8 8 M z.z.;.>.9.0.7.#.:.8.8.8.8.:.@.#.8.t.z.V.! n u t = 9 9 q u a ",
"9 9 w q a t 9 8 q f h.b.u.>.9.e.9.=.#.*.=.:.*.@.@.>.q.i.V.b.D h 9 8 % q 9 9 9 9 ",
"8 5 ; 8 9 = 9 = = - Z b.z.,.8.e.t.9.*.@.@.@.@.#.>.9.r.z.S.f.n r = ; q a = % 9 5 ",
"8 : : r 9 % 9 9 > : v v.L l.e.0.e.t.9.7.>.:.:.8.0.e.2.J V.C 0 q a = a a $ * 9 9 ",
"5 = 8 8 9 9 9 9 * 8 d H K S.l.r.0.t.t.t.e.e.e.t.t.3.J S.! g 9 a a 5 a a y q 9 9 ",
"9 8 # 8 q 9 9 9 w = = l 1.S.S.A.r.e.t.t.t.t.t.t.p.b.S.d.v q 9 a a a a a 9 9 8 a ",
"9 9 q 9 q = 9 = q = ; o s F m.b.6.w.y.w.w.w.w.a.b.S.! z : : 9 a a i a p 5 9 q 5 ",
"% 9 9 9 9 q 9 a 5 + ; + w f C j.S.v.v.v.W v.v.v.x.A l * ; * 8 + X < O @ 8 q q * ",
"8 9 8 9 9 9 7 X + w . X 5 5 s v D ! z.[ _ [ g.~ B d 8 ; = = u > 8 9 9 $ = 7 q 7 ",
"5 = 9 9 9 q y * 8 9 9 8 5 9 8 q r d l 6 g G b h h 9 9 9 9 a a h 9 9 9 9 8 8 4 @ ",
"9 = 9 q 9 q y a a 5 9 9 9 9 9 9 7 o ; * 0 p a a t 9 9 9 q 9 % = u 9 9 q q $ 8 8 ",
"a u p 9 9 9 9 a a a a a a 4 9 9 4 @ ; = 0 o 7 t 9 9 % % q 7 & 9 9 5 9 9 q @ $ 8 ",
"9 9 u 5 : = 9 a a a a a a u q 9 q q 9 q 7 & $ 9 9 9 o & q h % p 4 9 q q 7 9 $ 8 ",
"9 7 7 9 $ @ 8 9 t y 9 q q 8 9 9 9 q 9 9 w 4 8 9 9 9 7 % q 9 % a 9 q $ & q q % 9 ",
"9 9 : 9 : 8 9 8 9 9 9 9 9 q 9 9 u 9 5 w 7 9 q 8 7 8 q 9 9 q 7 t 8 5 @ o q 9 9 7 ",
"9 8 : 9 9 a e $ $ 8 i i $ @ 8 8 q 9 $ @ 9 9 = : % 7 & $ 7 % q 9 8 ; > 8 9 9 8 8 ",
"= 7 a h q 9 q $ @ q a y * @ 4 e y 9 $ @ 8 9 7 : q q o @ q % 0 q 9 * = 9 $ % % : "
};
