/* XPM */
static char *result[] = {
/* columns rows colors chars-per-pixel */
"40 40 42 1 ",
"  c #2D5913",
". c #325F14",
"X c #2E6010",
"o c #326413",
"O c #366D13",
"+ c #396D17",
"@ c #356519",
"# c #39661A",
"$ c #366A1A",
"% c #3C6D1C",
"& c #377014",
"* c #3A7217",
"= c #3D731B",
"- c #3F781C",
"; c #3D6D20",
": c #406E1E",
"> c #41761E",
", c #427A1E",
"< c #427621",
"1 c #447B21",
"2 c #497E24",
"3 c #4B7E2B",
"4 c #45811E",
"5 c #48861E",
"6 c #4A891F",
"7 c #478122",
"8 c #4B8525",
"9 c #4C8924",
"0 c #4D8529",
"q c #4E8928",
"w c #518524",
"e c #508D25",
"r c #518C2A",
"t c #4F9126",
"y c #519126",
"u c #54932A",
"i c #58972E",
"p c #57992D",
"a c #5A9D2D",
"s c #548F30",
"d c #589432",
"f c #5B9B31",
/* pixels */
"<>9909w19999r009rf9908997209ue=%909990>>",
"=%9q47w7taaaar,999999448>1>9e9;%it99>1<%",
"2%91>>89aaaaae999w,090989y9999>1999997,7",
"1%079>9uaaaaa9999,<98498%s9990<-1>99w899",
"99w18u99aaaap9999,<799900-99,>>1121+0,99",
"9w8 2oo99pt99aa99,,80999999,11w9<7=;1>q9",
"9>><3q709999999>>79999998>09dy99>99199,%",
"9,<>9q,9999990u997%19990,>999y99r9999981",
"991-90=799099,at9>:,99999&09r79999999999",
">7909q09999999599w89999968%o#%996uy9=99y",
"98==9990taa99a999907899899O099999ap9099p",
"90:*99q<7aatau9999<<9>9996taaa999989950-",
"899099u-<,4ta=8904><<>8w9aaaaa999999991%",
"6699q---11f90%>98>>9>199payaaqq999998,9u",
"aa0999aa-=r9910999791199yy<>u;999999>*9u",
"yu9999990-99999997:0>9909u1er099=-099w90",
"99ta999990999999999998w9997e889971-909>1",
"999ta999q7989999y,99897,78999999,10989><",
"a569at99q7999999a%=99997>79999960q0994>=",
"9ap9999909999999i*79991991999999999999>%",
"9aa99999 1X$qtaaa87979q89999997099999%=9",
"uaa9ua95<00&&9t590118919199999>,9t99e==9",
"tay6aa97999999y998><o.:o%9f899<>aa79f999",
"999uaa9909909uap69992<<91>79999fu94999ua",
"9999a9999298eaa9899991<89w9999ap99109699",
"98109>911%1ae-u9899*99*9q99999ay>19a>>99",
"9>109,997>0f>199wr>1900999a99999a>aa->99",
"9,999999>991>,9d7*99*99999y9999aa6aay999",
"90*99999w1>7-1<<8999790;=999999aaaaa999i",
"99909,9,9,<=4=8fy89979w%%891>,9aayad6999",
"=999909a8#<$q0099999e99*%99<<>9#O3@;999>",
"0999997o#wXo99899999909fe99<1,u7899=1190",
"6,9999y>0898699999999uaap9799aaf9999794;",
"949999yaa99999997%<>9aaat99999->u9099=97",
"ayp9999aaaaaa8997%1>0=7u99--q8<899990%=9",
"99u67>9aaaaaar99999w0==999%=9f>f799999=7",
"9779%%099tq9999999999799997-90-ae9%%99-0",
"9919,09999999099i99979997899997997%%0999",
"9979eae==9ai=%8999=%00>1>1=%9-998<299087",
"11af999%%9ay=%2ey9=%797299=%0190e>>9---1"
};
