/* XPM */
static char *result[] = {
/* columns rows colors chars-per-pixel */
"16 16 43 1 ",
"  c #A57C78",
". c #B5948F",
"X c #B69591",
"o c #B99C97",
"O c #BA9C97",
"+ c #BB9D97",
"@ c #BB9C98",
"# c #BB9D98",
"$ c #BA9C99",
"% c #BB9C99",
"& c #BA9D99",
"* c #BB9D99",
"= c #BC9C98",
"- c #BC9D98",
"; c #BC9D99",
": c #BD9D99",
"> c #BC9E99",
", c #BC9D9A",
"< c #BC9D9B",
"1 c #BD9E9A",
"2 c #BC9E9B",
"3 c #BD9E9B",
"4 c #BD9E9C",
"5 c #BE9F9E",
"6 c #BEA09E",
"7 c #BFA19F",
"8 c #C0A1A0",
"9 c #C0A1A1",
"0 c #C0A1A2",
"q c #C2A3A3",
"w c #C1A2A4",
"e c #C3A5A5",
"r c #C3A4A6",
"t c #C6A6AA",
"y c #C6A7AB",
"u c #C6A7AC",
"i c #C7A7AD",
"p c #C7A8AC",
"a c #C8A8AD",
"s c #C8A8AE",
"d c #C8A9AE",
"f c #C9A9AE",
"g c #C8A9AF",
/* pixels */
" X*o#;;;=;;%<557",
".O**;:1;;;;;;,,,",
"*$*;;;;;;@;;;;,,",
"&,,;***;**;;;;,,",
";>-;;;;;;;;;;;+;",
";>;;;;;;;;;;@;#-",
",,;;;;;;;;;#@%46",
",;;;;;;;;;;%29ry",
",;;;;;;;;;%<qyaf",
",;;;;;;;;;%5tdff",
",;;;;;;;;;;9pfff",
";@;;;;;1;;;0ifff",
";@;;;;;3;;;wifff",
";;;;;,,<;%,easff",
";;;;;;;;;%4ussff",
";;;;;;;;-,8gffff"
};
