/* XPM */
static char *result[] = {
/* columns rows colors chars-per-pixel */
"40 40 118 2 ",
"   c #010100",
".  c #0B0706",
"X  c #040C01",
"o  c #0C0C0C",
"O  c #061101",
"+  c #091503",
"@  c #0D1E04",
"#  c #131313",
"$  c #181917",
"%  c #1B1B1B",
"&  c #211C13",
"*  c #102007",
"=  c #1A340A",
"-  c #1E3B0C",
";  c #1D2E12",
":  c #203E0E",
">  c #233317",
",  c #232323",
"<  c #2B2B2B",
"1  c #312B29",
"2  c #382F2A",
"3  c #2F362A",
"4  c #343434",
"5  c #3B3B3B",
"6  c #463A27",
"7  c #48342B",
"8  c #453C37",
"9  c #22410E",
"0  c #274A0F",
"q  c #244210",
"w  c #2A4D13",
"e  c #2D5015",
"r  c #2D5913",
"t  c #315C15",
"y  c #316313",
"u  c #366D13",
"i  c #396B17",
"p  c #36641A",
"a  c #39651A",
"s  c #3C6D1C",
"d  c #377014",
"f  c #3A7317",
"g  c #3D731B",
"h  c #3F781D",
"j  c #3C6C21",
"k  c #406E1E",
"l  c #41761E",
"z  c #427A1E",
"x  c #53423A",
"c  c #5B473D",
"v  c #427621",
"b  c #447B21",
"n  c #497E24",
"m  c #4B7E2B",
"M  c #424342",
"N  c #4C4C4C",
"B  c #4D514A",
"V  c #525252",
"C  c #5A5350",
"Z  c #5B5B5B",
"A  c #7B5745",
"S  c #656565",
"D  c #6C6C6C",
"F  c #726B68",
"G  c #737373",
"H  c #7C7C7C",
"J  c #8A624E",
"K  c #886554",
"L  c #946C56",
"P  c #AD7D65",
"I  c #44801D",
"U  c #4A891F",
"Y  c #478122",
"T  c #4B8524",
"R  c #4C8924",
"E  c #4D8529",
"W  c #4E8928",
"Q  c #518524",
"!  c #508D25",
"~  c #518C2A",
"^  c #4F9026",
"/  c #519126",
"(  c #54932A",
")  c #58962D",
"_  c #579A2D",
"`  c #5A9D2D",
"'  c #548F30",
"]  c #5B9B32",
"[  c #B78369",
"{  c #BC866B",
"}  c #BF896D",
"|  c #A08374",
" . c #CF9374",
".. c #CD957A",
"X. c #D09679",
"o. c #838383",
"O. c #8C8C8C",
"+. c #958F8C",
"@. c #939393",
"#. c #9C9C9C",
"$. c #A4A4A4",
"%. c #AEA8A6",
"&. c #ACACAC",
"*. c #B1B1B1",
"=. c #BABABA",
"-. c #C29C89",
";. c #EBAD8C",
":. c #F0AC88",
">. c #F9B18D",
",. c #F5B494",
"<. c #FEB590",
"1. c #EBC09F",
"2. c #F6C7A5",
"3. c #FFC5A1",
"4. c gray77",
"5. c #CCCCCC",
"6. c #D3D3D3",
"7. c #DADADA",
/* pixels */
"v l W E E R Q b R R R W ~ R T E R ] R R R R E E Y n E R ~ ! g s W W R R R E g v ",
"g s R ~ I I R T R ` ` ` ` ~ n R R R R R R I I R z v z R ! ! j s _ ^ R R l v l f ",
"n s R h z l T R ` ` ` ` ` ~ R R T T h Y Y E R R R / R R R R z v R R R R R Y l E ",
"b s W Y R l T ( ` ` ` ` ` R R Y X       X z R T s ' R R R W z v v z R R R T R Q ",
"R R T b T ~ Q ^ ` ` ` ` _ R l * $ , , , $ * g E R h R R z z l n b b n i E h R R ",
"R Q T t n y y R ~ _ ! ! T _ v   , x c x ,   s R R R E z b v R T v Y g j v h W R ",
"R z v k m R T E R R T R R ! s   8 K L J 2   s R T l R R ) ! R T l R R n W R h g ",
"R z v l R R z R R R R R R R g . } 2.3.>.{ . s R l z R R R ( R R R R R R R R E b ",
"R R z h R E s T E E R R R I v X J 1.3.:.A . s R R d W R ~ Y R R R U Q R R R R R ",
"z Y R E R R R R R R R R R T I p & X.;.} & a Y R U E j y a s R R R ( / R f R R ( ",
"T R s g R R R E / ` _ R R ` I e ; -.-.| , e b T R R u R R R R R R ` _ R E R R ) ",
"R T s g R R W v Y ` ` ^ ] W p # V H O.o.C # j Y R U R ` ` ` R R U R R R R R T h ",
"R T R W W R / b h b I R ` = , o.&.Z V Z &.o.% 9 R ` ` ` ` ` R R R R R T R R n s ",
"U R R R W h z h b v ] R O H 5.&.*.&.#.@.@.&.o.M @ ` / _ ` W W R E R R R T z R ( ",
"` ` R R R R _ _ h g W R X H 4.D =.6.6.5.$.D @.Z + ~ b l / j R R R R R R l f R ( ",
"/ ( R R R R R R R b R r B #.&.V &.6.7.5.$.V #.G 3 a v ~ / E R E f v T R R R R W ",
"R R / ` R R R R R R n   4.=.O.N O.5.4.&.O.V O.@.G   l R R R R R T v h R R E l v ",
"R R R ^ ` R R R R E z   4.O.N 5 O.&.&.&.H V V H @.. b R R E R R z v E R R R v b ",
"_ U U T ` / R R R b v   $.H M 4 O.&.$.@.H V 5 G #.  n E R E R R W W R R R I v s ",
"! ` _ R R R R R W h > $.+.Z 4 < o.@.O.o.H 5 < D *.Z ; g R U R R R R R R R T l f ",
"R ` ` R R T R R r p $ 7.O.V < , H O.o.o.D < , D &.H o p T R E R R R R R R s s R ",
"( ` ` R ( _ R R b j $ 7.+.C < , G o.O.o.N , 1 F %.H o i R R g h R ^ R R ! g g R ",
"/ ` / U ` ` R T E s # &.,.<...4 4 =.5.=.4 % ..<.;.H o p E R z z _ ` n R ` R R R ",
"R R R / ` ` T R R T k # [  .| V S G D Z S 4 P ..P # s E R R R ] ( R Y R R R _ _ ",
"R R R ! ` R R R R I Q t 6 7 M G G Z N M G M 7 7 6 t Y 0 = - ` ` R E h R R R R R ",
"R T v W E l R z z s b _ : O , o.G N 5 5 G V # + 9 R t O     a R z v R _ z l R U ",
"R v v W R z R R Y z E ] l = , L D 5 < 5 H Z # q R v X         g ( z ` ` h z R R ",
"T I R R R R R R g E R n l = , O.V 4 < < o.O.% : g               s U ` ` / R R R ",
"E E f R R R R R R b l Y h = % G V < , < G Z #                   p ` ` ` R R T ` ",
"R R R R R z R z R z v s b = % G V % o $ D V o                   i ( ` ] R R R R ",
"h R R E R W R _ R p v p R : % S V o   o S V #                   9 m p j R R R l ",
"T R R R R R Y y a Q y y n : # N N o   o N N #                   t R R g z b R E ",
"U z R R R E ^ h R T T T X o , , N o   o N , % #               W R R R R T R Y s ",
"R z R R R R ^ ` ` R n X M M 4 ; , .   . < % 5 M 5         X s g ( R E R R g T Y ",
"` / _ R R R R ` ` R - $ < < < % o q w 0 o % < < < $     + r v R R R R R W s g W ",
"R R ( U n z R ] ` Y   $ % $ % % * v R n @ $ % $ $ %   X : ] z ` Y R Q R Y R g Y ",
"R T Y R s s E R R g X         X T R R R Y X           y W R v ` R R s s R R h T ",
"R R n R z E R R R R Y Y m T Y T ) R R R Y Y T T n T Y T R R Y R R Y s s W R R R ",
"R R n R R ` R g g R _ ) g s T R R R g s R R l v h v g s E h R R R v n R R W T T ",
"v Y _ ` R R R g s W ` / l s Y R / R g j Y R Y n R W g s E v R R R l v R z g h h "
};
