/* XPM */
static char *result[] = {
/* columns rows colors chars-per-pixel */
"40 40 63 1 ",
"  c #362616",
". c #372817",
"X c #3A2915",
"o c #352619",
"O c #39271A",
"+ c #37291A",
"@ c #3C2C1C",
"# c #3F301F",
"$ c #3D2E20",
"% c #3F3121",
"& c #412F1D",
"* c #43321F",
"= c #4A341E",
"- c #50371F",
"; c #412F21",
": c #443322",
"> c #4A3622",
", c #473825",
"< c #4D3A25",
"1 c #483428",
"2 c #4E3C29",
"3 c #533C25",
"4 c #593E27",
"5 c #533E29",
"6 c #583F29",
"7 c #564027",
"8 c #594227",
"9 c #55412A",
"0 c #5B432B",
"q c #5E482D",
"w c #5C4630",
"e c #5E4932",
"r c #61472D",
"t c #61482F",
"y c #604730",
"u c #644B33",
"i c #694E34",
"p c #654F3A",
"a c #6A4F38",
"s c #675036",
"d c #6D5136",
"f c #65513B",
"g c #6D5239",
"h c #725335",
"j c #72553A",
"k c #76593C",
"l c #795B3E",
"z c #755B43",
"x c #7B5E42",
"c c #7E6144",
"v c #7E6449",
"b c #836445",
"n c #836549",
"m c #85684C",
"M c #8B6C4C",
"N c #876C50",
"B c #8A6D51",
"V c #8D7153",
"C c #937454",
"Z c #997755",
"A c #957857",
"S c #937558",
"D c #987658",
/* pixels */
"gggga5 50::::::O>uajjdgggq9>:Cjddmn:::0t",
"gjhj<;+@O>60>>: @5u00sjdg6&:Bi403iZ3:mdd",
"gaau::::=BjdjMv8%+&599092@;:s8gdi0Mk:s09",
"gja0&:::Mu66yuanS6:.@&+XO:&29gdddrks$9gs",
"ig99O:nmr6ugs08qjSq::**:@:qidgdjgu3:.qgs",
"999X:&s00uggggg0udV:::%:55isdgt0q3.:@ggj",
":@.::@<9adgggddg0sV:=uut3::@:9992+1+qjdg",
":11@>:*9gggggggg3g8zckdhbx:<:oo+::X:idsi",
":&&9k<+9gaggggdg3&3dqir0iC>xnkrg>@$1*<::",
"%,gshb&<gjajggg9@:wyggyuMk@9qdjjV*$:=*::",
"$eggsC%*0jggsg9+:&9au,5>::%9ggqav:kSxjcg",
"+9ggib:.5uai9%@:@<<*+;>>:::*eguw<;guresg",
":$pfw,:*&@&O@:@@$<;::NkhlSg::&<@:;pai09a",
"::++:=rju:::O +>bVnb3jryiilC3::::2jagg9i",
":,1iCDCbMZl*$@3CdiaB:q50y0qikCg::6gggg0u",
"$5*piu08raBZ::zs0qaB:59aajh09av=@yggggr0",
"+5i@06uaq0glA=@8gggB:30jagga6ra3ouaajass",
"+9z@9ygag9qdbb*2sgg=::iahggg40au@wajajgg",
"+9x@0ggjggt0dC>*saj5@&0ggggg99ha@9jgggag",
"+99+0gajggd9ukg#rgg6+&90gghg69p1$<ihgghg",
"@9:+9jaggaj60ab@3902@ba8uggi9:@*:++:5dgw",
"*9:X9gggajgi0su$*@#@3b6pgjau<+:<*-*&@906",
"@&:.9igggggg0i:XV83zkijgjai5&;3BxlC<.@<:",
"@:1+;0wrwggi9#:@9ihiddahha3;:jbas9e@::::",
"BCM<:@29989:@*%.2099idjau:%>Bdduuy0@:1*m",
"uudB0%.@&@oo:***&*::::<&;>xlsg0ugau@::@s",
"979gV>1::::iVCVDSDM3:::<xxdiqgdggjs::.9u",
"989gdm=::zbjuqqtiujZ91nkgu09ghdggg0#:@pg",
"0iq9ddm9:#>90ga6qr9uS;&03*@@:990u8<+:+ug",
"iag99qsln*:#whaagau6kq+@@:,<::::>@@:1o:e",
"iddgg80udD7:>dghgaa0iM::<gigs::%::gBu#+7",
"dggggdi90dZ**dajgjduqn:2geqqqg=:gndskb%@",
"gjagjajy9ux:@0ggjadd9&:fqrggee0:u4w00M-@",
"dgggajha6ig:@0ggajhi5@X1yaggi6p#2sgg8hc%",
"hgggjasq99>:o6sgggg0&:+9iggjrqw+<jggdsC:",
"ahgau3099:=*o*sgg99>+$:9sdgg9g:o3gggsiC:",
"iaqy699,=9Ci$+30999X:@0sddg0uy$@whjggrV1",
"66595=:9BhdC:o.##@X:+wghggq0d:o@gddgu9 :",
"9399=f%qse9jm:::::#@0jht0699=.@9udd092+@",
"902&w6o10dgsqSc:.@%96&+@<5:::+::*@@:,.:X"
};
